Input File,Codec,Input File Size (MB),Output File Size (MB),Compression Rate,VMAF,Encoding Time,Encoding Time Calculated,Decoding Time,Frame,FPS,Bitrate,Speed
input_1.y4m,H264,1483.16,43.16,2.91,85.31,frame=    5 fps=0.0 q=31.0 size=     256KiB time=00:00:00.06 bitrate=34958.9kbits/s speed=0.115x    ,11.54,1.01,5,0,34958.9kbits/s,0.115x
input_1.y4m,H264_NVENC,1483.16,52.27,3.52,82.31,frame=   62 fps=0.0 q=31.0 size=    9728KiB time=00:00:01.18 bitrate=67535.7kbits/s speed=2.26x    ,1.67,1.25,62,0,67535.7kbits/s,2.26x
input_1.y4m,HEVC,1483.16,21.66,1.46,74.6,frame=    1 fps=0.0 q=33.5 size=       0KiB time=-00:00:00.02 bitrate=N/A speed=N/A    ,29.98,1.53,1,0,,
input_1.y4m,HEVC_NVENC,1483.16,20.67,1.39,67.74,frame=   67 fps=0.0 q=36.0 size=    3328KiB time=00:00:01.28 bitrate=21299.5kbits/s speed=2.45x    ,1.74,1.12,67,0,21299.5kbits/s,2.45x
input_1.y4m,AV1_Optimized,1483.16,73.9,4.98,94.81,frame=    1 fps=0.0 q=16.0 size=       0KiB time=00:00:00.00 bitrate=N/A speed=   0x    ,14.04,4.95,1,0,,0x
input_1.y4m,AV1_Rust,1483.16,58.51,3.95,89.65,frame=    0 fps=0.0 q=0.0 size=       0KiB time=N/A bitrate=N/A speed=N/A    ,1350.24,4.35,0,0,,
input_1.y4m,AV1_Fallback,1483.16,58.19,3.92,94.86,frame=    0 fps=0.0 q=0.0 size=       0KiB time=N/A bitrate=N/A speed=N/A    ,1011.83,5.15,0,0,,
